<svg xmlns="http://www.w3.org/2000/svg" viewBox="0 0 50 50" width="50" height="50">
    <path color="#edeff1" fill="#919da7" overflow="visible" font-family="Bitstream Vera Sans" style="text-transform: none; line-height: normal; text-indent: 0px; block-progression: tb; -inkscape-font-specification: Bitstream Vera Sans;" enable-background="accumulate" d="M 39 6 C 37.21 6.00014 35.4217 6.6715 34.0625 8.03125 L 14.2188 27.9063 A 1.0001 1.0001 0 0 0 14.0313 28.0938 A 1.0001 1.0001 0 0 0 13.9688 28.1563 A 1.0001 1.0001 0 0 0 13.8438 28.2813 A 1.0001 1.0001 0 0 0 13.8438 28.3125 C 12.105 30.2665 12.1597 33.2847 14.0313 35.1563 C 15.9713 37.0975 19.1537 37.0975 21.0938 35.1563 L 36.1875 20.0313 A 1.0001 1.0001 0 0 0 35.4688 18.3125 A 1.0001 1.0001 0 0 0 34.7813 18.625 L 19.6875 33.7188 C 18.5115 34.8955 16.6135 34.8955 15.4375 33.7188 C 14.2999 32.5811 14.2798 30.8056 15.3438 29.625 A 1.0001 1.0001 0 0 0 15.4375 29.5 A 1.0001 1.0001 0 0 0 15.5 29.4375 L 15.5938 29.375 A 1.0001 1.0001 0 0 0 15.5938 29.3438 L 35.5 9.46875 C 37.4537 7.51424 40.5755 7.51304 42.5313 9.46875 C 44.4851 11.4234 44.4848 14.5464 42.5313 16.5 L 17.9063 41.125 C 15.1736 43.8577 10.765 43.8578 8.03125 41.125 C 5.29781 38.3924 5.29875 33.9825 8.03125 31.25 L 27.7188 11.5625 A 1.0001 1.0001 0 1 0 26.3125 10.1563 L 6.625 29.8438 C 3.1275 33.3412 3.12644 39.0651 6.625 42.5625 C 10.1233 46.0597 15.8152 46.0598 19.3125 42.5625 L 43.9688 17.9375 C 46.6872 15.2191 46.6869 10.7506 43.9688 8.03125 C 42.6086 6.67111 40.79 5.99986 39 6 Z" />
</svg>