<?xml version="1.0" encoding="utf-8"?>
<!-- Generator: Adobe Illustrator 19.0.0, SVG Export Plug-In . SVG Version: 6.00 Build 0)  -->
<svg version="1.1" id="Layer_1" xmlns="http://www.w3.org/2000/svg" xmlns:xlink="http://www.w3.org/1999/xlink" x="0px" y="0px"
	 viewBox="0 0 25 25" style="enable-background:new 0 0 25 25;" xml:space="preserve">
<style type="text/css">
	.st0{fill:#fff;}
	.st1{fill:#fff;}
</style>
<g id="Shape_14">
	<g id="XMLID_40_">
		<path id="XMLID_41_" class="st0" d="M12.6,0C3.9,0,0,7.4,0,10.4c0,3,0,13.5,0,13.5L1.2,25c0,0,7.2,0,13.6,0
			C21.1,25,25,16.7,25,12.4C25,8.1,21.3,0,12.6,0z M14.2,21.9c-4.8,0-10.2,0-10.2,0l-0.9-0.8c0,0,0-7.9,0-10.1S6,3.1,12.6,3.1
			c6.5,0,9.3,6.1,9.3,9.3C21.9,15.6,19,21.9,14.2,21.9z"/>
	</g>
</g>
<g id="Shape_16">
	<g id="XMLID_54_">
		<path id="XMLID_55_" class="st1" d="M18,10.7c-0.8,0-1.5,0.7-1.5,1.5c0,0.8,0.7,1.5,1.5,1.5c0.8,0,1.5-0.7,1.5-1.5
			C19.5,11.4,18.8,10.7,18,10.7z M7.7,10.7c-0.8,0-1.5,0.7-1.5,1.5c0,0.8,0.7,1.5,1.5,1.5c0.8,0,1.5-0.7,1.5-1.5
			C9.2,11.4,8.5,10.7,7.7,10.7z M12.8,10.7c-0.8,0-1.5,0.7-1.5,1.5c0,0.8,0.7,1.5,1.5,1.5c0.8,0,1.5-0.7,1.5-1.5
			C14.3,11.4,13.7,10.7,12.8,10.7z"/>
	</g>
</g>
</svg>
