<?xml version="1.0" encoding="utf-8"?>
<!-- Generator: Adobe Illustrator 19.0.0, SVG Export Plug-In . SVG Version: 6.00 Build 0)  -->
<svg version="1.1" id="Layer_1" xmlns="http://www.w3.org/2000/svg" xmlns:xlink="http://www.w3.org/1999/xlink" x="0px" y="0px"
	 viewBox="0 0 25 27" style="enable-background:new 0 0 25 27;" xml:space="preserve">
<style type="text/css">
	.st0{fill:#fff;}
	.st1{fill:#fff;}
	.st2{fill-rule:evenodd;clip-rule:evenodd;fill:#fff;}
</style>
<g id="Shape_14_copy">
	<g id="XMLID_47_">
		<path id="XMLID_48_" class="st0" d="M14.8,5.9c-7.2,0-10.4,6.2-10.4,8.7c0,2.5,0,11.3,0,11.3l1,0.9c0,0,6,0,11.2,0s8.4-7,8.4-10.6
			C25,12.7,22,5.9,14.8,5.9z M16.1,24.2c-3.9,0-8.4,0-8.4,0l-0.7-0.7c0,0,0-6.6,0-8.5c0-1.9,2.4-6.5,7.8-6.5c5.4,0,7.7,5.1,7.7,7.8
			S20,24.2,16.1,24.2z"/>
	</g>
</g>
<g id="Shape_16_copy">
	<g id="XMLID_61_">
		<path id="XMLID_62_" class="st1" d="M19.2,14.9c-0.7,0-1.2,0.6-1.2,1.3c0,0.7,0.6,1.3,1.2,1.3c0.7,0,1.2-0.6,1.2-1.3
			C20.5,15.4,19.9,14.9,19.2,14.9z M10.7,14.9c-0.7,0-1.2,0.6-1.2,1.3c0,0.7,0.6,1.3,1.2,1.3c0.7,0,1.2-0.6,1.2-1.3
			C11.9,15.4,11.4,14.9,10.7,14.9z M15,14.9c-0.7,0-1.2,0.6-1.2,1.3c0,0.7,0.6,1.3,1.2,1.3c0.7,0,1.2-0.6,1.2-1.3
			C16.2,15.4,15.6,14.9,15,14.9z"/>
	</g>
</g>
<g id="Shape_19">
	<g id="XMLID_24_">
		<path id="XMLID_25_" class="st2" d="M13.1,1.8c-6.6,0-13,6-13.1,12.4c0,8.2,0,11.9,0,11.9s0.2,0.9,0.9,0.9c0.7,0,0.4,0.1,0.9,0.1
			c0.5,0,0.8-0.3,0.8-0.9v-11C2.6,10.9,6.7,4.3,13,4.3c1.2,0.1,1.4-0.2,1.4-0.7c0-0.5,0-0.5,0-0.9C14.5,2.4,14.1,1.8,13.1,1.8z"/>
	</g>
</g>
</svg>
