<?xml version="1.0" encoding="utf-8"?>
<!-- Generator: Adobe Illustrator 19.0.0, SVG Export Plug-In . SVG Version: 6.00 Build 0)  -->
<svg version="1.1" id="Layer_1" xmlns="http://www.w3.org/2000/svg" xmlns:xlink="http://www.w3.org/1999/xlink" x="0px" y="0px"
	 viewBox="0 0 32 24" style="enable-background:new 0 0 32 24;" xml:space="preserve">
<style type="text/css">
	.st0{fill:#9593A7;}
	.st1{fill-rule:evenodd;clip-rule:evenodd;fill:#9593A7;}
</style>
<g id="Shape_12">
	<g id="XMLID_41_">
		<path id="XMLID_42_" class="st0" d="M0.2,24h3.2c0.9-4.1,4.6-7.2,9-7.2s8,3.1,9,7.2h3.2c-0.7-4.1-3.3-7.5-7-9.1
			c1.8-1.6,2.9-3.8,2.9-6.4c0-4.7-3.8-8.5-8.5-8.5C7.4,0,3.6,3.8,3.6,8.5c0,2.7,1.2,5,3.1,6.6C3.4,16.8,0.9,20.1,0.2,24z M6.8,8.5
			c0-2.9,2.4-5.3,5.3-5.3c2.9,0,5.3,2.4,5.3,5.3c0,2.7-2,4.9-4.5,5.2c-0.2,0-0.3,0-0.5,0c-0.3,0-0.6,0-0.9,0
			C8.8,13.4,6.8,11.2,6.8,8.5z"/>
	</g>
</g>
<g id="Shape_13">
	<g id="XMLID_33_">
		<path id="XMLID_34_" class="st1" d="M27.2,13.3c0,0,2-2.7,2-5.2c0-2.5-1.9-6.4-6-8c0,0-3.4-0.2-3.3,0.4l0.7,2c0,0,5.2,2.1,5.2,5.3
			s-2.7,5.7-2.7,5.7l0.2,1c0,0,5.3,1.8,5,5.7h3.3C31.6,20.3,31.9,15.6,27.2,13.3z"/>
	</g>
</g>
</svg>
