<?xml version="1.0" encoding="utf-8"?>
<!-- Generator: Adobe Illustrator 19.0.0, SVG Export Plug-In . SVG Version: 6.00 Build 0)  -->
<svg version="1.1" id="Layer_1" xmlns="http://www.w3.org/2000/svg" xmlns:xlink="http://www.w3.org/1999/xlink" x="0px" y="0px"
	 viewBox="0 0 24 25" style="enable-background:new 0 0 24 25;" xml:space="preserve">
<style type="text/css">
	.st0{fill:#9593A7;}
</style>
<g id="Shape_17_copy_3">
	<g id="XMLID_53_">
		<path id="XMLID_54_" class="st0" d="M8.3,18.8h1c0.6,0,1-0.5,1-1l0-10.5c0-0.6-0.5-1-1-1h-1c-0.6,0-1,0.5-1,1l0,10.5
			C7.3,18.3,7.8,18.8,8.3,18.8z M2.1,18.8h1c0.6,0,1-0.5,1-1l0-7.4c0-0.6-0.5-1-1-1h-1c-0.6,0-1,0.5-1,1l0,7.4
			C1,18.3,1.5,18.8,2.1,18.8z M20.8,18.8h1c0.6,0,1-0.5,1-1l0-13.6c0-0.6-0.5-1-1-1h-1c-0.6,0-1,0.5-1,1l0,13.6
			C19.8,18.3,20.3,18.8,20.8,18.8z M14.6,18.8h1c0.6,0,1-0.5,1-1l0-16.7c0-0.6-0.5-1-1-1h-1c-0.6,0-1,0.5-1,1l0,16.7
			C13.5,18.3,14,18.8,14.6,18.8z M23.1,21.8H1c-0.6,0-1,0.5-1,1v1c0,0.6,0.5,1,1,1h22c0.6,0,1-0.5,1-1v-1
			C24.1,22.3,23.6,21.8,23.1,21.8z"/>
	</g>
</g>
</svg>
