<?xml version="1.0" encoding="utf-8"?>
<!-- Generator: Adobe Illustrator 17.0.0, SVG Export Plug-In . SVG Version: 6.00 Build 0)  -->
<!DOCTYPE svg PUBLIC "-//W3C//DTD SVG 1.1//EN" "http://www.w3.org/Graphics/SVG/1.1/DTD/svg11.dtd">
<svg version="1.1" id="Слой_1" xmlns="http://www.w3.org/2000/svg" xmlns:xlink="http://www.w3.org/1999/xlink" x="0px" y="0px"
	 width="46px" height="49px" viewBox="0 0 46 49" enable-background="new 0 0 46 49"
	 xml:space="preserve">
<path fill="#FCD732" d="M0,0v41h4v6l7-6h32V0H0z"/>
<path fill="#0B0E1D" d="M29.882,31.397c2.149,0,4.102-0.547,5.643-1.585l0.437-0.293l-1.281-1.609l-0.36,0.198
	c-1.245,0.69-2.709,1.055-4.231,1.055l-0.205-0.002c-2.791-0.025-4.674-1.613-5.128-4.282h11.93l0.077-0.397
	c0.11-0.583,0.173-1.304,0.173-1.93c0-4.416-2.633-6.949-7.226-6.949c-4.626,0-7.616,3.093-7.616,7.881
	C22.096,28.291,25.153,31.397,29.882,31.397 M29.75,17.829c3.209,0,4.703,1.411,4.703,4.439c0,0.191-0.008,0.409-0.026,0.64H24.69
	C24.814,19.723,26.695,17.829,29.75,17.829"/>
<path fill="#0B0E1D" d="M7.624,23.234h5.329l5.351,7.406H21.5l-5.724-7.737c2.86-0.74,4.543-3.052,4.543-6.325
	c0-4.031-2.648-6.636-6.746-6.636H4.976V30.64h2.648V23.234z M7.621,12.297h5.796c2.665,0,4.253,1.601,4.253,4.286
	c0,2.732-1.55,4.301-4.253,4.301H7.621V12.297z"/>
</svg>
