<?xml version="1.0" encoding="utf-8"?>
<!-- Generator: Adobe Illustrator 19.0.0, SVG Export Plug-In . SVG Version: 6.00 Build 0)  -->
<svg version="1.1" id="Layer_1" xmlns="http://www.w3.org/2000/svg" xmlns:xlink="http://www.w3.org/1999/xlink" x="0px" y="0px"
	 viewBox="0 0 25 25" style="enable-background:new 0 0 25 25;" xml:space="preserve">
<style type="text/css">
	.st0{fill:#fff;}
</style>
<g id="Shape_12_copy">
	<g id="XMLID_44_">
		<path id="XMLID_45_" class="st0" d="M18.5,16.6c1.7-1.5,2.7-3.7,2.7-6.2c0-4.5-3.5-8.2-7.8-8.2c-4.3,0-7.8,3.7-7.8,8.2
			c0,2.3,0.9,4.3,2.3,5.8c1.3,1.3,3,2.2,4.8,2.4c0.3,0,0.6-0.1,1-0.1c4,0,7.4,3,8.3,6.9h3C24.3,21.6,21.8,18.3,18.5,16.6z
			 M14.1,15.5c-0.2,0-0.3,0-0.5,0c-0.3,0-0.6,0-0.8,0c-2.5-0.3-4.4-2.5-4.4-5.1c0-2.9,2.2-5.2,4.9-5.2s4.9,2.3,4.9,5.2
			C18.3,13,16.5,15.1,14.1,15.5z"/>
	</g>
</g>
<g id="Shape_18">
	<g id="XMLID_35_">
		<path id="XMLID_37_" class="st0" d="M14,19.3c-0.7,0-1.3,0.4-1.7,1c-1.6-0.4-3.9-1.4-5.9-3.7c-3.6-4-2.7-8.4-2.1-10.9L3.3,4.9
			c0,0-3.4,7.6,1.2,12.5c0.1,0.1,0.3,0.3,0.4,0.4c-0.9,0.9-3.3,4-4.9,7.3h3.6c0,0,1.5-3.3,3.7-5.3c1.8,1.2,3.5,1.7,4.8,2
			c0.2,0.8,1,1.4,1.9,1.4c1.1,0,2-0.9,2-2C16,20.2,15.1,19.3,14,19.3z"/>
	</g>
</g>
</svg>
