<?xml version="1.0" encoding="utf-8"?>
<!-- Generator: Adobe Illustrator 17.0.0, SVG Export Plug-In . SVG Version: 6.00 Build 0)  -->
<!DOCTYPE svg PUBLIC "-//W3C//DTD SVG 1.1//EN" "http://www.w3.org/Graphics/SVG/1.1/DTD/svg11.dtd">
<svg version="1.1" id="Слой_1" xmlns="http://www.w3.org/2000/svg" xmlns:xlink="http://www.w3.org/1999/xlink" x="0px" y="0px"
	 width="281.169px" height="54.186px" viewBox="0 0 281.169 54.186" enable-background="new 0 0 281.169 54.186"
	 xml:space="preserve">
<path fill="#0B0E1E" d="M194.931,40.257h5.018V11.072h-5.018V40.257z"/>
<path fill="#0B0E1E" d="M194.931,40.257V11.072h5.018v29.185H194.931z"/>
<path fill="#0B0E1E" d="M226.701,11.072v21.16c-3.751,3.339-5.74,4.318-8.678,4.318c-3.976,0-8.25-2.247-8.25-7.175V11.072h-5.016
	v18.859c0,7.279,6.305,11.092,12.543,11.092c3.796,0,6.423-1.32,9.658-3.92l0.079,3.155h4.683V11.072H226.701z"/>
<path fill="#0B0E1E" d="M166.343,25.624c0-7.299,2.939-10.846,8.981-10.846c2.691,0,4.627,0.648,8.762,4.424l0.004,12.994
	c-1.971,2.899-4.624,4.311-8.107,4.311C169.856,36.507,166.343,32.537,166.343,25.624 M184.09,0.307v13.715
	c-3.964-3.054-6.467-3.678-9.462-3.678c-8.451,0-13.301,5.565-13.301,15.267c0,9.44,5.311,15.304,13.859,15.304
	c2.619,0,6.151-0.627,9.166-3.345l0.08,2.688h4.672V0.307H184.09z"/>
<path fill="none" d="M152.461,40.257h5.012V11.072h-5.012V40.257z"/>
<path fill="#0B0E1E" d="M152.461,40.257V11.072h5.012v29.185H152.461z"/>
<path fill="#0B0E1E" d="M124.22,44.884c0-3.636,2.465-4.988,9.087-4.988c6.617,0,10.203,0.798,10.203,4.988
	c0,4.653-7.577,5.016-9.897,5.016C129.074,49.9,124.22,48.583,124.22,44.884 M125.26,21.148c0-4.246,2.908-6.682,7.973-6.682
	c5.07,0,7.981,2.436,7.981,6.682c0,4.25-2.912,6.69-7.981,6.69C130.255,27.838,125.26,26.965,125.26,21.148 M120.476,21.148
	c0,3.271,1.075,5.959,3.125,7.86c-1.845,1.32-2.908,3.061-2.908,4.831c0,1.587,0.946,2.986,2.497,3.871
	c-2.625,1.5-3.951,3.905-3.951,7.174c0,6.858,7.692,9.302,14.896,9.302c6.969,0,14.417-2.441,14.417-9.299
	c0-8.302-8.074-9.259-14.148-9.259l-5.531,0.002c-2.045-0.041-3.475-0.864-3.475-2.006c0-0.878,0.827-1.804,2.183-2.471
	c1.628,0.687,3.528,1.034,5.65,1.034c7.993,0,12.759-4.123,12.759-11.038c0-2.42-0.773-4.524-2.212-6.122l4.494-0.113v-3.841h-9.298
	c-1.682-0.637-3.612-0.958-5.743-0.958C125.482,10.114,120.476,14.446,120.476,21.148"/>
<path fill="#0B0E1E" d="M241.19,14.044l-0.077-2.972h-4.677v29.185h5.02V18.986c3.324-3.295,4.989-4.209,7.552-4.209
	c3.517,0,7.306,2.246,7.306,7.173v18.307h5.019V21.684c0-1.076-0.144-2.079-0.449-3.049c3.48-3.285,5.308-3.857,7.963-3.857
	c3.518,0,7.307,2.246,7.307,7.173v18.307h5.016V21.394c0-7.265-5.863-11.069-11.659-11.069c-3.836,0-6.538,1.137-10.303,4.433
	c-2.065-2.761-5.555-4.435-9.376-4.435C246.402,10.323,244.039,11.575,241.19,14.044"/>
<path fill="#0B0E1E" d="M103.486,14.708c6.219,0,9.115,2.737,9.115,8.603c0,0.371-0.014,0.795-0.05,1.239H93.68
	C93.918,18.379,97.563,14.708,103.486,14.708 M88.655,25.671c0,9.315,5.921,15.333,15.085,15.333c4.166,0,7.951-1.06,10.939-3.071
	l0.845-0.567l-2.48-3.121l-0.698,0.386c-2.414,1.334-5.249,2.042-8.199,2.042l-0.396-0.001c-5.41-0.052-9.062-3.128-9.941-8.298
	h23.123l0.147-0.772c0.211-1.13,0.338-2.527,0.338-3.737c0-8.564-5.103-13.468-14.008-13.468
	C94.447,10.396,88.655,16.389,88.655,25.671"/>
<path fill="#0B0E1E" d="M62.729,4.796h11.232c5.162,0,8.243,3.105,8.243,8.308c0,5.295-3.006,8.333-8.243,8.333H62.729V4.796z
	 M57.605,0.235v40.113h5.129V25.993h10.327l10.371,14.355h6.196L78.537,25.353c5.538-1.436,8.801-5.914,8.801-12.257
	c0-7.812-5.13-12.861-13.076-12.861H57.605z"/>
<path fill="#FCD732" d="M0,0v41h4v6l7-6h32V0H0z"/>
<path fill="#0B0E1D" d="M29.882,31.397c2.149,0,4.102-0.547,5.643-1.585l0.437-0.293l-1.281-1.609l-0.36,0.198
	c-1.245,0.69-2.709,1.055-4.231,1.055l-0.205-0.002c-2.791-0.025-4.674-1.613-5.128-4.282h11.93l0.077-0.397
	c0.11-0.583,0.173-1.304,0.173-1.93c0-4.416-2.633-6.949-7.226-6.949c-4.626,0-7.616,3.093-7.616,7.881
	C22.096,28.291,25.153,31.397,29.882,31.397 M29.75,17.829c3.209,0,4.703,1.411,4.703,4.439c0,0.191-0.008,0.409-0.026,0.64H24.69
	C24.814,19.723,26.695,17.829,29.75,17.829"/>
<path fill="#0B0E1D" d="M7.624,23.234h5.329l5.351,7.406H21.5l-5.724-7.737c2.86-0.74,4.543-3.052,4.543-6.325
	c0-4.031-2.648-6.636-6.746-6.636H4.976V30.64h2.648V23.234z M7.621,12.297h5.796c2.665,0,4.253,1.601,4.253,4.286
	c0,2.732-1.55,4.301-4.253,4.301H7.621V12.297z"/>
</svg>
