<?xml version="1.0" encoding="utf-8"?>
<!-- Generator: Adobe Illustrator 17.0.0, SVG Export Plug-In . SVG Version: 6.00 Build 0)  -->
<!DOCTYPE svg PUBLIC "-//W3C//DTD SVG 1.1//EN" "http://www.w3.org/Graphics/SVG/1.1/DTD/svg11.dtd">
<svg version="1.1" xmlns="http://www.w3.org/2000/svg" xmlns:xlink="http://www.w3.org/1999/xlink" x="0px" y="0px" width="70px"
	 height="14px" viewBox="0 0 70 14" enable-background="new 0 0 70 14" xml:space="preserve">
<g id="Shape_1_copy_7_1_" enable-background="new    ">
	<g id="Shape_1_copy_7">
		<g>
			<polygon fill-rule="evenodd" clip-rule="evenodd" fill="#FCD833" points="0.01,-0.039 0.01,10.01 0.991,10.01 1,12 3,10 
				10.987,10.01 10.987,-0.039 			"/>
		</g>
	</g>
</g>
<g id="Shape_1_copy_8_1_" enable-background="new    ">
	<g id="Shape_1_copy_8">
		<g>
			<path fill-rule="evenodd" clip-rule="evenodd" fill="#24364F" d="M48.152,9.977h1.23V2.823h-1.23V9.977z M55.939,8.01
				c-0.919,0.818-1.407,1.058-2.127,1.058c-0.974,0-2.022-0.551-2.022-1.759V2.823h-1.229v4.622c0,1.784,1.545,2.719,3.074,2.719
				c0.93,0,1.574-0.324,2.367-0.961l0.019,0.773h1.148V2.823h-1.23V8.01z M45.495,3.546c-0.972-0.748-1.585-0.901-2.319-0.901
				c-2.071,0-3.26,1.364-3.26,3.742c0,2.314,1.302,3.751,3.397,3.751c0.642,0,1.508-0.154,2.247-0.82l0.02,0.659h1.145V0.185h-1.229
				V3.546z M43.508,9.057c-1.502,0-2.363-0.973-2.363-2.667c0-1.789,0.72-2.658,2.201-2.658c0.66,0,1.134,0.159,2.148,1.084
				l0.001,3.185C45.012,8.711,44.362,9.057,43.508,9.057z M37.743,9.977h1.229V2.823h-1.229V9.977z M33.318,8.842l-1.356,0
				c-0.501-0.01-0.852-0.212-0.852-0.492c0-0.215,0.203-0.442,0.535-0.606c0.399,0.168,0.865,0.253,1.385,0.253
				c1.959,0,3.127-1.01,3.127-2.705c0-0.593-0.189-1.109-0.542-1.501l1.101-0.028V2.823h-2.279
				c-0.412-0.156-0.885-0.235-1.408-0.235c-1.899,0-3.126,1.062-3.126,2.704c0,0.802,0.263,1.461,0.766,1.927
				c-0.452,0.323-0.713,0.75-0.713,1.184c0,0.389,0.232,0.732,0.612,0.949c-0.643,0.368-0.968,0.957-0.968,1.758
				c0,1.681,1.885,2.28,3.651,2.28c1.708,0,3.534-0.598,3.534-2.279C36.785,9.077,34.806,8.842,33.318,8.842z M33.03,3.655
				c1.243,0,1.956,0.597,1.956,1.638c0,1.042-0.714,1.64-1.956,1.64c-0.73,0-1.954-0.214-1.954-1.64
				C31.076,4.252,31.789,3.655,33.03,3.655z M33.124,12.34c-1.112,0-2.302-0.323-2.302-1.229c0-0.891,0.604-1.222,2.227-1.222
				c1.622,0,2.501,0.196,2.501,1.222C35.549,12.251,33.692,12.34,33.124,12.34z M66.432,2.64c-0.94,0-1.602,0.279-2.525,1.087
				C63.4,3.05,62.545,2.64,61.608,2.64c-0.84,0-1.42,0.307-2.118,0.912l-0.019-0.729h-1.146v7.153h1.23V4.763
				c0.815-0.808,1.223-1.031,1.851-1.031c0.862,0,1.791,0.55,1.791,1.758v4.487h1.23V5.424c0-0.264-0.035-0.51-0.11-0.747
				c0.853-0.805,1.301-0.945,1.952-0.945c0.862,0,1.791,0.55,1.791,1.758v4.487h1.229V5.353C69.289,3.572,67.852,2.64,66.432,2.64z
				 M25.721,2.658c-2.197,0-3.616,1.469-3.616,3.744c0,2.283,1.451,3.758,3.697,3.758c1.021,0,1.949-0.26,2.681-0.753l0.207-0.139
				l-0.608-0.765l-0.171,0.095c-0.592,0.327-1.286,0.501-2.01,0.501l-0.097,0c-1.326-0.013-2.221-0.767-2.437-2.034h5.667
				l0.036-0.189c0.052-0.277,0.083-0.619,0.083-0.916C29.154,3.86,27.903,2.658,25.721,2.658z M27.961,6.127h-4.625
				c0.058-1.513,0.952-2.412,2.403-2.412c1.524,0,2.234,0.671,2.234,2.109C27.974,5.914,27.97,6.018,27.961,6.127z M21.782,3.32
				c0-1.915-1.257-3.152-3.205-3.152h-4.083v9.832h1.257V6.48h2.531l2.542,3.518h1.519l-2.718-3.675
				C20.982,5.972,21.782,4.874,21.782,3.32z M15.75,5.364V1.285h2.753c1.265,0,2.02,0.761,2.02,2.036
				c0,1.298-0.737,2.042-2.02,2.042H15.75z"/>
		</g>
	</g>
</g>
<g id="Shape_1_copy_9_1_" enable-background="new    ">
	<g id="Shape_1_copy_9">
		<g>
			<path fill-rule="evenodd" clip-rule="evenodd" fill="#555555" d="M7.367,3.997c-1.049,0-1.728,0.588-1.728,1.499
				C5.639,6.409,6.332,7,7.405,7c0.488,0,0.931-0.104,1.28-0.301l0.099-0.056L8.494,6.337L8.413,6.374
				C8.13,6.506,7.798,6.575,7.453,6.575l-0.046,0C6.773,6.57,6.346,6.268,6.243,5.76h2.707l0.017-0.075
				c0.025-0.111,0.039-0.248,0.039-0.367C9.006,4.478,8.409,3.997,7.367,3.997z M8.437,5.386H6.227
				C6.256,4.78,6.682,4.42,7.375,4.42c0.728,0,1.067,0.268,1.067,0.844C8.442,5.3,8.44,5.342,8.437,5.386z M5.485,4.262
				C5.485,3.495,4.885,3,3.955,3H2.004v3.935h0.601V5.527h1.209l1.214,1.408h0.725L4.455,5.465C5.104,5.324,5.485,4.884,5.485,4.262
				z M2.605,5.08V3.448h1.315c0.605,0,0.965,0.305,0.965,0.815c0,0.519-0.352,0.818-0.965,0.818H2.605z"/>
		</g>
	</g>
</g>
</svg>
