<?xml version="1.0" encoding="utf-8"?>
<!-- Generator: Adobe Illustrator 19.0.0, SVG Export Plug-In . SVG Version: 6.00 Build 0)  -->
<svg version="1.1" id="Layer_1" xmlns="http://www.w3.org/2000/svg" xmlns:xlink="http://www.w3.org/1999/xlink" x="0px" y="0px"
	 viewBox="0 0 25 25" style="enable-background:new 0 0 25 25;" xml:space="preserve">
<style type="text/css">
	.st0{fill:#FFFFFF;}
</style>
<g id="Shape_17">
	<g id="XMLID_52_">
		<path id="XMLID_53_" class="st0" d="M12.6,7C9.5,7,7,9.5,7,12.6c0,3.1,2.5,5.6,5.6,5.6c3.1,0,5.6-2.5,5.6-5.6
			C18.1,9.5,15.6,7,12.6,7z M23.3,10.9h-0.7c-0.3-1.6-0.9-3-1.8-4.3L21.3,6c0.6-0.6,0.6-1.7,0-2.3C20.7,3,19.7,3,19,3.7l-0.6,0.6
			c-1.2-0.9-2.7-1.5-4.3-1.7V1.7c0-0.9-0.7-1.7-1.7-1.7c-0.9,0-1.7,0.7-1.7,1.7v0.9c-1.6,0.3-3,0.9-4.2,1.8L6,3.7
			C5.4,3,4.3,3,3.7,3.7C3,4.3,3,5.4,3.7,6l0.6,0.6c-0.9,1.2-1.5,2.7-1.8,4.2H1.7c-0.9,0-1.7,0.7-1.7,1.7c0,0.9,0.7,1.7,1.7,1.7h0.9
			c0.2,1.6,0.9,3,1.7,4.3L3.7,19c-0.6,0.6-0.6,1.7,0,2.3C4.3,22,5.4,22,6,21.3l0.6-0.6c1.2,0.9,2.7,1.6,4.3,1.8v0.7
			c0,0.9,0.7,1.7,1.7,1.7c0.9,0,1.7-0.7,1.7-1.7v-0.7c1.6-0.3,3.1-0.9,4.3-1.8l0.5,0.5c0.6,0.6,1.7,0.6,2.3,0c0.6-0.6,0.6-1.7,0-2.3
			l-0.5-0.5c0.9-1.3,1.5-2.7,1.8-4.3h0.7c0.9,0,1.7-0.7,1.7-1.7C25,11.6,24.3,10.9,23.3,10.9z M12.6,20.3c-4.3,0-7.7-3.5-7.7-7.7
			c0-4.3,3.5-7.7,7.7-7.7c4.3,0,7.7,3.5,7.7,7.7C20.3,16.8,16.8,20.3,12.6,20.3z"/>
	</g>
</g>
</svg>
